<?xml version="1.0" encoding="UTF-8"?>
<svg id="Layer_2" data-name="Layer 2" xmlns="http://www.w3.org/2000/svg" viewBox="0 0 310.05 79.27">
  <defs>
    <style>
      .cls-1 {
        fill: #142430;
      }
    </style>
  </defs>
  <g id="Camada_1" data-name="Camada 1">
    <g>
      <g>
        <g>
          <path class="cls-1" d="M114.39,45.94h23.14c.33,0,.6.27.6.6v5.95c0,.33-.27.6-.6.6h-34.92c-.33,0-.6-.27-.6-.6v-5.48c0-.15.06-.3.17-.42l23.95-24.97c.37-.38.1-1.01-.43-1.01h-23.08c-.33,0-.6-.27-.6-.6v-5.89c0-.33.27-.6.6-.6h34.92c.33,0,.6.27.6.6v5.48c0,.16-.06.3-.17.42l-24,24.91c-.37.38-.1,1.02.43,1.02Z"/>
          <path class="cls-1" d="M227.72,14.12v38.37c0,.33-.27.6-.6.6h-6.37c-.33,0-.6-.27-.6-.6v-15.07c0-.33-.27-.6-.6-.6h-21.33c-.33,0-.6.27-.6.6v15.07c0,.33-.27.6-.6.6h-6.37c-.33,0-.6-.27-.6-.6V14.12c0-.33.27-.6.6-.6h6.37c.33,0,.6.27.6.6v15.01c0,.33.27.6.6.6h21.33c.33,0,.6-.27.6-.6v-15.01c0-.33.27-.6.6-.6h6.37c.33,0,.6.27.6.6Z"/>
          <path class="cls-1" d="M288.93,45.94h.77l12.49-32.04c.09-.23.31-.38.56-.38h6.7c.42,0,.71.42.56.82l-14.97,38.37c-.09.23-.31.38-.56.38h-10.44c-.25,0-.47-.15-.56-.38l-14.97-38.37c-.15-.39.14-.82.56-.82h6.82c.25,0,.47.15.56.38l12.49,32.04Z"/>
          <path class="cls-1" d="M266.79,52.7l-4.99-12.73c-.09-.23-.31-.39-.56-.39h-14.83c-.25,0-.47.15-.56.39l-4.85,12.72c-.09.23-.31.39-.56.39h-6.69c-.42,0-.71-.42-.56-.82l14.97-38.37c.09-.23.31-.38.56-.38h10.44c.25,0,.47.15.56.38l14.97,38.37c.15.39-.14.82-.56.82h-6.77c-.25,0-.47-.15-.56-.39ZM258.91,32.48l-4.55-11.67c-.2-.5-1-.5-1.2,0l-4.46,11.69c-.16.39.13.82.56.82h9.1c.43,0,.72-.44.56-.83Z"/>
        </g>
        <path class="cls-1" d="M176.71,52.7l-4.99-12.73c-.09-.23-.31-.39-.56-.39h-14.83c-.25,0-.47.15-.56.39l-4.85,12.72c-.09.23-.31.39-.56.39h-6.69c-.42,0-.71-.42-.56-.82l14.97-38.37c.09-.23.31-.38.56-.38h10.44c.25,0,.47.15.56.38l14.97,38.37c.15.39-.14.82-.56.82h-6.77c-.25,0-.47-.15-.56-.39ZM168.83,32.48l-4.55-11.67c-.2-.5-1-.5-1.2,0l-4.46,11.69c-.16.39.13.82.56.82h9.1c.43,0,.72-.44.56-.83Z"/>
      </g>
      <g>
        <path class="cls-1" d="M62.34,47.49h-14.53,0s0,0-.01,0h-.36c-.65-.06-1.76-.47-.2-2.89l18.02-25.35c.56-.79,0-1.88-.97-1.88h-16.41c-.38,0-.75.19-.97.5l-7.79,10.96c0-.06.02-.13.02-.19v-8.13c0-1.73-1.41-3.14-3.14-3.14h-16.14c-1.73,0-3.14,1.41-3.14,3.14v8.13c0,1.73,1.41,3.14,3.14,3.14h14.94c.72.08,1.89.62-.4,3.68h0s-17.46,24.56-17.46,24.56c-.56.79,0,1.88.97,1.88h16.41c.38,0,.75-.19.97-.5l7.79-10.96c0,.06-.02.13-.02.19v8.13c0,1.73,1.41,3.14,3.14,3.14h16.14c1.73,0,3.14-1.41,3.14-3.14v-8.13c0-1.73-1.41-3.14-3.14-3.14Z"/>
        <path class="cls-1" d="M79.27,2.92v73.43H2.92V2.92h76.35M82.19,0H0v79.27h82.19V0h0Z"/>
      </g>
      <g>
        <path class="cls-1" d="M127.53,72.12c-.72-.58-1.05-1.41-1-2.48l1.74-.03c0,.66.2,1.14.59,1.42.39.28,1.06.42,2.01.42.85,0,1.49-.12,1.9-.36.42-.24.62-.59.62-1.05,0-.28-.05-.5-.15-.67-.1-.16-.3-.3-.6-.41-.3-.11-.75-.21-1.35-.29l-1.31-.18c-1.15-.16-2.01-.46-2.59-.89-.58-.44-.86-1.09-.86-1.97s.36-1.58,1.07-2.07c.72-.49,1.73-.75,3.04-.76,1.39,0,2.44.29,3.14.83.7.55,1.03,1.34.99,2.36h-1.7c0-.59-.2-1.01-.6-1.28s-1.01-.39-1.83-.39-1.44.11-1.85.33c-.41.22-.61.54-.61.95,0,.27.05.48.16.64.11.15.3.28.58.39.28.1.69.2,1.23.28l1.38.2c1.23.18,2.14.5,2.71.95.57.46.86,1.13.86,2.01s-.37,1.63-1.1,2.15c-.73.53-1.78.79-3.12.79h-.01c-1.51,0-2.62-.29-3.33-.88Z"/>
        <path class="cls-1" d="M136.99,71.99c-.69-.66-1.04-1.57-1.04-2.73,0-.77.16-1.43.49-2,.33-.57.79-1,1.38-1.3.59-.3,1.28-.45,2.06-.45,1.19,0,2.13.33,2.83.99.7.66,1.05,1.57,1.05,2.73,0,.77-.16,1.43-.48,1.99-.32.56-.77.99-1.36,1.3s-1.28.46-2.08.46c-1.21,0-2.16-.33-2.85-.99ZM141.6,70.94c.41-.42.61-.98.61-1.71s-.2-1.27-.61-1.68c-.41-.41-.99-.62-1.75-.62s-1.33.21-1.73.62c-.41.41-.61.98-.61,1.7s.2,1.29.6,1.7c.4.41.98.62,1.74.62s1.34-.21,1.75-.62Z"/>
        <path class="cls-1" d="M144.59,63h1.53v9.82h-1.53v-9.82Z"/>
        <path class="cls-1" d="M147.66,72.28c-.43-.46-.67-1.13-.69-2v-4.48h1.52v4.2c0,.54.11.93.33,1.17.22.24.6.36,1.13.36.33,0,.66-.05,1-.16.34-.11.63-.29.86-.53.23-.25.35-.56.35-.93v-4.1h1.52v7.02h-1.52v-.93c-.66.72-1.53,1.08-2.61,1.08-.82,0-1.45-.23-1.89-.69Z"/>
        <path class="cls-1" d="M158.43,74.28c0-.14-.05-.24-.15-.31-.12-.08-.4-.14-.84-.18l.21-.84c-1.04-.12-1.84-.5-2.41-1.14s-.85-1.48-.85-2.54c0-1.18.36-2.1,1.07-2.76.71-.66,1.67-1,2.89-1,1.07,0,1.94.28,2.61.83.67.55,1.07,1.31,1.18,2.26h-1.56c-.11-.52-.36-.93-.74-1.23s-.89-.44-1.54-.44c-.7,0-1.27.19-1.71.58-.44.39-.66.97-.66,1.75,0,.65.19,1.2.56,1.64s.97.66,1.8.66c.66,0,1.19-.16,1.58-.48.39-.32.62-.73.71-1.22h1.57c-.13.93-.51,1.66-1.13,2.21-.62.55-1.42.84-2.41.89l-.04.2c.6.14.9.51.9,1.09,0,.43-.18.76-.53,1s-.84.35-1.46.34l-.06-.81c.67.02,1.01-.15,1.01-.51Z"/>
        <path class="cls-1" d="M164.04,71.99c-.69-.66-1.04-1.57-1.04-2.73,0-.77.16-1.43.49-2,.33-.57.79-1,1.38-1.3s1.28-.45,2.06-.45c1.19,0,2.13.33,2.83.99.7.66,1.05,1.57,1.05,2.73,0,.77-.16,1.43-.48,1.99-.32.56-.77.99-1.36,1.3s-1.28.46-2.08.46c-1.21,0-2.16-.33-2.85-.99ZM168.65,70.94c.41-.42.61-.98.61-1.71s-.2-1.27-.61-1.68c-.41-.41-.99-.62-1.75-.62s-1.33.21-1.73.62c-.41.41-.61.98-.61,1.7s.2,1.29.6,1.7c.4.41.98.62,1.74.62s1.34-.21,1.75-.62ZM164.8,64.61c0-.41.12-.76.37-1.03.24-.28.55-.41.93-.41.16,0,.3.03.42.08s.25.12.38.2c.09.06.19.11.29.15.1.05.2.07.29.07.22,0,.33-.21.34-.62l1,.1c.04.47-.07.86-.32,1.16-.25.31-.57.46-.98.46-.19,0-.34-.03-.46-.08s-.25-.12-.4-.22c-.11-.07-.2-.13-.27-.16s-.16-.05-.26-.05c-.22,0-.32.2-.32.6l-1-.07s-.01-.11-.01-.2Z"/>
        <path class="cls-1" d="M172.48,72c-.69-.65-1.03-1.56-1.03-2.72s.35-2.1,1.06-2.76c.71-.66,1.66-1,2.87-1s2.12.33,2.81.99c.7.66,1.05,1.57,1.05,2.74v.35h-6.22c.05.59.27,1.06.66,1.42s.94.54,1.66.54c.55,0,1.01-.11,1.36-.34.36-.22.6-.55.74-.98h1.7c-.22.87-.65,1.54-1.31,2.02-.65.48-1.5.72-2.54.72-1.19,0-2.13-.33-2.81-.98ZM176.88,67.37c-.37-.29-.89-.44-1.54-.44-.54,0-1.02.14-1.42.41-.4.27-.67.68-.81,1.23h4.48c-.09-.5-.33-.9-.7-1.2Z"/>
        <path class="cls-1" d="M180.87,72.39c-.6-.38-.91-.99-.91-1.81h1.54c0,.37.17.63.5.77s.75.22,1.26.22c.64,0,1.09-.07,1.38-.2s.42-.35.42-.65c0-.25-.11-.45-.32-.6-.22-.15-.58-.25-1.08-.32l-.88-.11c-.66-.08-1.2-.2-1.59-.34-.4-.15-.7-.35-.9-.62-.2-.27-.3-.64-.3-1.09,0-.66.29-1.18.88-1.56s1.35-.56,2.31-.56,1.67.19,2.27.56.93.94.97,1.68h-1.5c0-.57-.59-.86-1.74-.86-.59,0-1.02.07-1.29.2-.27.14-.41.33-.41.6,0,.22.1.38.3.51.2.12.55.22,1.05.28l1,.13c.69.08,1.24.21,1.65.37.41.16.7.39.88.67.18.28.27.65.27,1.11,0,.68-.29,1.22-.87,1.61s-1.42.59-2.51.6c-.97,0-1.76-.21-2.36-.59Z"/>
        <path class="cls-1" d="M192.65,72c-.69-.65-1.03-1.56-1.03-2.72s.35-2.1,1.06-2.76c.71-.66,1.66-1,2.87-1s2.12.33,2.81.99c.7.66,1.05,1.57,1.05,2.74v.35h-6.22c.05.59.27,1.06.66,1.42s.94.54,1.66.54c.55,0,1.01-.11,1.36-.34.36-.22.6-.55.74-.98h1.7c-.22.87-.65,1.54-1.31,2.02-.65.48-1.5.72-2.54.72-1.19,0-2.13-.33-2.81-.98ZM197.04,67.37c-.37-.29-.89-.44-1.54-.44-.54,0-1.01.14-1.42.41-.4.27-.67.68-.81,1.23h4.48c-.09-.5-.33-.9-.7-1.2Z"/>
        <path class="cls-1" d="M200.24,65.65h1.53v.94c.27-.32.61-.57,1-.76s.8-.3,1.2-.32c1.04-.06,1.77.31,2.2,1.11.72-.74,1.59-1.11,2.61-1.11.85,0,1.51.22,1.96.65.46.43.69,1.06.69,1.89v4.77h-1.53v-4.41c0-.52-.1-.9-.29-1.13-.19-.23-.53-.34-1-.34-.31,0-.62.05-.93.16-.31.11-.57.28-.77.5-.21.23-.31.51-.31.84v4.38h-1.53v-4.41c0-.51-.1-.88-.29-1.12s-.53-.36-1-.36c-.35,0-.67.07-.98.22-.31.14-.56.35-.75.62-.19.27-.29.57-.29.92v4.13h-1.53v-7.17Z"/>
        <path class="cls-1" d="M221.07,63h1.4l4.63,9.82h-1.82l-1.28-2.74h-4.5l-1.26,2.74h-1.81l4.65-9.82ZM223.31,68.56l-1.56-3.38-1.54,3.38h3.1Z"/>
        <path class="cls-1" d="M225.14,65.78h1.81l2.32,5.01,2.34-5.01h1.74l-3.45,7.04h-1.32l-3.44-7.04Z"/>
        <path class="cls-1" d="M233.96,72.31c-.49-.38-.74-.94-.74-1.68,0-.9.37-1.5,1.11-1.82.74-.31,1.74-.47,3.02-.48l1.19-.03v-.14c0-.48-.13-.81-.38-.99-.25-.18-.69-.27-1.31-.27-.54,0-.96.08-1.25.25-.29.16-.44.46-.45.89h-1.56c.02-.89.31-1.53.87-1.92.56-.39,1.36-.59,2.39-.6,1.11,0,1.92.24,2.43.68s.76,1.12.76,2.01v4.62h-1.52v-.97c-.28.32-.63.57-1.05.75s-.91.27-1.46.27c-.89,0-1.58-.19-2.07-.57ZM237.91,71.25c.42-.27.62-.62.62-1.07v-.76l-1.18.04c-.96.04-1.64.15-2.03.33-.39.18-.58.47-.58.86,0,.31.13.55.39.73.26.18.65.27,1.17.27.65,0,1.19-.13,1.61-.4Z"/>
        <path class="cls-1" d="M240.97,63h1.53v9.82h-1.53v-9.82Z"/>
        <path class="cls-1" d="M243.34,63h1.56v1.74h-1.56v-1.74ZM243.35,65.78h1.53v7.04h-1.53v-7.04Z"/>
        <path class="cls-1" d="M246.42,72.31c-.49-.38-.74-.94-.74-1.68,0-.9.37-1.5,1.11-1.82.74-.31,1.74-.47,3.02-.48l1.19-.03v-.14c0-.48-.13-.81-.38-.99-.25-.18-.69-.27-1.31-.27-.54,0-.96.08-1.25.25-.29.16-.44.46-.45.89h-1.56c.02-.89.31-1.53.87-1.92.56-.39,1.36-.59,2.39-.6,1.11,0,1.92.24,2.43.68s.76,1.12.76,2.01v4.62h-1.52v-.97c-.28.32-.63.57-1.05.75s-.91.27-1.46.27c-.89,0-1.58-.19-2.07-.57ZM250.38,71.25c.42-.27.62-.62.62-1.07v-.76l-1.18.04c-.96.04-1.64.15-2.03.33-.39.18-.58.47-.58.86,0,.31.13.55.39.73.26.18.65.27,1.17.27.65,0,1.19-.13,1.61-.4Z"/>
        <path class="cls-1" d="M257.34,74.28c0-.14-.05-.24-.15-.31-.12-.08-.4-.14-.84-.18l.21-.84c-1.04-.12-1.84-.5-2.41-1.14-.57-.64-.85-1.48-.85-2.54,0-1.18.36-2.1,1.07-2.76.71-.66,1.67-1,2.89-1,1.07,0,1.94.28,2.61.83.67.55,1.07,1.31,1.18,2.26h-1.56c-.11-.52-.36-.93-.74-1.23-.38-.29-.89-.44-1.54-.44-.7,0-1.27.19-1.71.58-.44.39-.66.97-.66,1.75,0,.65.19,1.2.56,1.64.37.44.97.66,1.8.66.66,0,1.19-.16,1.58-.48.39-.32.62-.73.71-1.22h1.57c-.13.93-.51,1.66-1.13,2.21-.62.55-1.42.84-2.41.89l-.04.2c.6.14.9.51.9,1.09,0,.43-.18.76-.53,1-.36.24-.84.35-1.46.34l-.06-.81c.67.02,1.01-.15,1.01-.51Z"/>
        <path class="cls-1" d="M262.95,71.99c-.69-.66-1.04-1.57-1.04-2.73,0-.77.16-1.43.49-2,.33-.57.79-1,1.38-1.3s1.28-.45,2.06-.45c1.19,0,2.13.33,2.83.99.7.66,1.05,1.57,1.05,2.73,0,.77-.16,1.43-.48,1.99-.32.56-.77.99-1.36,1.3s-1.28.46-2.08.46c-1.21,0-2.16-.33-2.85-.99ZM267.56,70.94c.41-.42.61-.98.61-1.71s-.2-1.27-.61-1.68c-.41-.41-.99-.62-1.75-.62s-1.33.21-1.73.62c-.41.41-.61.98-.61,1.7s.2,1.29.6,1.7c.4.41.98.62,1.74.62s1.34-.21,1.75-.62ZM263.71,64.61c0-.41.12-.76.36-1.03.24-.28.55-.41.93-.41.16,0,.3.03.42.08s.25.12.38.2c.09.06.19.11.29.15.1.05.2.07.29.07.22,0,.33-.21.34-.62l1,.1c.04.47-.07.86-.32,1.16-.25.31-.57.46-.98.46-.19,0-.34-.03-.46-.08-.12-.05-.25-.12-.4-.22-.11-.07-.2-.13-.27-.16s-.16-.05-.26-.05c-.22,0-.32.2-.32.6l-1-.07s-.01-.11-.01-.2Z"/>
        <path class="cls-1" d="M271.4,72c-.69-.65-1.03-1.56-1.03-2.72s.35-2.1,1.06-2.76c.71-.66,1.66-1,2.87-1s2.12.33,2.81.99c.7.66,1.05,1.57,1.05,2.74v.35h-6.22c.05.59.27,1.06.66,1.42s.94.54,1.66.54c.55,0,1.01-.11,1.36-.34.36-.22.6-.55.74-.98h1.7c-.22.87-.65,1.54-1.31,2.02-.65.48-1.5.72-2.54.72-1.19,0-2.13-.33-2.81-.98ZM275.79,67.37c-.37-.29-.89-.44-1.54-.44-.54,0-1.02.14-1.42.41-.4.27-.67.68-.81,1.23h4.48c-.09-.5-.33-.9-.7-1.2Z"/>
        <path class="cls-1" d="M279.79,72.39c-.6-.38-.91-.99-.91-1.81h1.54c0,.37.17.63.5.77s.75.22,1.26.22c.64,0,1.09-.07,1.38-.2s.42-.35.42-.65c0-.25-.11-.45-.32-.6-.22-.15-.58-.25-1.08-.32l-.88-.11c-.66-.08-1.2-.2-1.59-.34-.4-.15-.7-.35-.9-.62-.2-.27-.3-.64-.3-1.09,0-.66.29-1.18.88-1.56s1.35-.56,2.31-.56,1.67.19,2.27.56.93.94.97,1.68h-1.5c0-.57-.59-.86-1.74-.86-.59,0-1.02.07-1.29.2-.27.14-.41.33-.41.6,0,.22.1.38.3.51s.55.22,1.05.28l1,.13c.69.08,1.24.21,1.65.37s.7.39.88.67.27.65.27,1.11c0,.68-.29,1.22-.87,1.61s-1.42.59-2.51.6c-.97,0-1.76-.21-2.36-.59Z"/>
      </g>
    </g>
  </g>
</svg>