<?xml version="1.0" encoding="UTF-8"?>
<svg id="Layer_2" data-name="Layer 2" xmlns="http://www.w3.org/2000/svg" viewBox="0 0 82.19 79.27">
  <defs>
    <style>
      .cls-1 {
        fill: #142430;
      }
    </style>
  </defs>
  <g id="Camada_1" data-name="Camada 1">
    <g>
      <path class="cls-1" d="M62.34,47.49h-14.53,0s0,0-.01,0h-.36c-.65-.06-1.76-.47-.2-2.89l18.02-25.35c.56-.79,0-1.88-.97-1.88h-16.41c-.38,0-.75.19-.97.5l-7.79,10.96c0-.06.02-.13.02-.19v-8.13c0-1.73-1.41-3.14-3.14-3.14h-16.14c-1.73,0-3.14,1.41-3.14,3.14v8.13c0,1.73,1.41,3.14,3.14,3.14h14.94c.72.08,1.89.62-.4,3.68h0s-17.46,24.56-17.46,24.56c-.56.79,0,1.88.97,1.88h16.41c.38,0,.75-.19.97-.5l7.79-10.96c0,.06-.02.13-.02.19v8.13c0,1.73,1.41,3.14,3.14,3.14h16.14c1.73,0,3.14-1.41,3.14-3.14v-8.13c0-1.73-1.41-3.14-3.14-3.14Z"/>
      <path class="cls-1" d="M79.27,2.92v73.43H2.92V2.92h76.35M82.19,0H0v79.27h82.19V0h0Z"/>
    </g>
  </g>
</svg>